<?xml version="1.0" standalone="no"?>
<!DOCTYPE svg PUBLIC "-//W3C//DTD SVG 20010904//EN"
 "http://www.w3.org/TR/2001/REC-SVG-20010904/DTD/svg10.dtd">
<svg version="1.0" xmlns="http://www.w3.org/2000/svg"
 width="520.000000pt" height="520.000000pt" viewBox="0 0 520.000000 520.000000"
 preserveAspectRatio="xMidYMid meet">
<metadata>
Created by potrace 1.11, written by Peter Selinger 2001-2013
</metadata>
<g transform="translate(0.000000,520.000000) scale(0.100000,-0.100000)"
fill="#000000" stroke="none">
<path d="M2360 5189 c-484 -43 -967 -236 -1370 -548 -109 -84 -347 -322 -431
-431 -265 -342 -438 -725 -514 -1134 -136 -741 46 -1481 514 -2086 84 -109
322 -347 431 -431 342 -265 725 -438 1134 -514 741 -136 1481 46 2086 514 109
84 347 322 431 431 468 605 650 1345 514 2086 -76 409 -249 792 -514 1134 -84
109 -322 347 -431 431 -537 415 -1184 607 -1850 548z m600 -944 c186 -25 357
-87 488 -177 125 -86 273 -258 336 -392 155 -323 136 -715 -47 -1008 -130
-208 -317 -363 -528 -439 -49 -17 -89 -34 -89 -37 0 -3 179 -255 398 -560 218
-305 399 -559 400 -564 2 -5 -41 -7 -97 -6 l-100 3 -388 545 -389 545 -652 3
-652 2 0 -550 0 -550 -85 0 -85 0 0 1600 0 1600 693 0 c540 0 715 -3 797 -15z"/>
<path d="M1640 3210 l0 -881 668 3 c655 4 668 4 747 26 164 46 299 127 416
248 111 117 179 237 220 389 28 105 31 325 6 428 -75 302 -319 553 -609 626
-139 36 -251 41 -858 41 l-590 0 0 -880z"/>
</g>
</svg>
